<svg xmlns="http://www.w3.org/2000/svg" xmlns:xlink="http://www.w3.org/1999/xlink" width="106" height="16" viewBox="0 0 106 16">
  <defs>
    <clipPath id="clip-path">
      <rect id="Rectangle_263" data-name="Rectangle 263" width="106" height="16" transform="translate(787 458)" fill="#fff" stroke="#707070" stroke-width="1"/>
    </clipPath>
  </defs>
  <g id="Mask_Group_2" data-name="Mask Group 2" transform="translate(-787 -458)" clip-path="url(#clip-path)">
    <g id="Group_936" data-name="Group 936" transform="translate(0 15)">
      <g id="Group_933" data-name="Group 933" transform="translate(17228 21297)">
        <path id="Path_42" data-name="Path 42" d="M-1284-1641h-2v-2h2v2Zm0-2v-2h2v2Zm2-2v-2h2v2Zm2-2v-2h2v2Zm2-2v-2h2v2Zm2-2v-2h2v2Zm2-2v-2h2v2Zm2-2v-2h2v2Zm2-2v-2h2v2Z" transform="translate(-15131 -19195)" fill="#09a0b9"/>
        <path id="Path_3463" data-name="Path 3463" d="M-1284-1641h-2v-2h2v2Zm0-2v-2h2v2Zm2-2v-2h2v2Zm2-2v-2h2v2Zm2-2v-2h2v2Zm2-2v-2h2v2Zm2-2v-2h2v2Zm2-2v-2h2v2Zm2-2v-2h2v2Z" transform="translate(-15139 -19195)" fill="#0d8297"/>
        <path id="Path_3464" data-name="Path 3464" d="M-1284-1641h-2v-2h2v2Zm0-2v-2h2v2Zm2-2v-2h2v2Zm2-2v-2h2v2Zm2-2v-2h2v2Zm2-2v-2h2v2Zm2-2v-2h2v2Zm2-2v-2h2v2Zm2-2v-2h2v2Z" transform="translate(-15147 -19195)" fill="#116474"/>
        <path id="Path_3465" data-name="Path 3465" d="M-1284-1641h-2v-2h2v2Zm0-2v-2h2v2Zm2-2v-2h2v2Zm2-2v-2h2v2Zm2-2v-2h2v2Zm2-2v-2h2v2Zm2-2v-2h2v2Zm2-2v-2h2v2Zm2-2v-2h2v2Z" transform="translate(-15155 -19195)" fill="#164651"/>
      </g>
      <g id="Group_935" data-name="Group 935" transform="translate(17292 21297)">
        <path id="Path_42-2" data-name="Path 42" d="M-1284-1641h-2v-2h2v2Zm0-2v-2h2v2Zm2-2v-2h2v2Zm2-2v-2h2v2Zm2-2v-2h2v2Zm2-2v-2h2v2Zm2-2v-2h2v2Zm2-2v-2h2v2Zm2-2v-2h2v2Z" transform="translate(-15131 -19195)" fill="#164651"/>
        <path id="Path_3463-2" data-name="Path 3463" d="M-1284-1641h-2v-2h2v2Zm0-2v-2h2v2Zm2-2v-2h2v2Zm2-2v-2h2v2Zm2-2v-2h2v2Zm2-2v-2h2v2Zm2-2v-2h2v2Zm2-2v-2h2v2Zm2-2v-2h2v2Z" transform="translate(-15139 -19195)" fill="#116474"/>
        <path id="Path_3464-2" data-name="Path 3464" d="M-1284-1641h-2v-2h2v2Zm0-2v-2h2v2Zm2-2v-2h2v2Zm2-2v-2h2v2Zm2-2v-2h2v2Zm2-2v-2h2v2Zm2-2v-2h2v2Zm2-2v-2h2v2Zm2-2v-2h2v2Z" transform="translate(-15147 -19195)" fill="#0d8297"/>
        <path id="Path_3465-2" data-name="Path 3465" d="M-1284-1641h-2v-2h2v2Zm0-2v-2h2v2Zm2-2v-2h2v2Zm2-2v-2h2v2Zm2-2v-2h2v2Zm2-2v-2h2v2Zm2-2v-2h2v2Zm2-2v-2h2v2Zm2-2v-2h2v2Z" transform="translate(-15155 -19195)" fill="#09a0b9"/>
      </g>
      <g id="Group_934" data-name="Group 934" transform="translate(17260 21297)">
        <path id="Path_42-3" data-name="Path 42" d="M-1284-1641h-2v-2h2v2Zm0-2v-2h2v2Zm2-2v-2h2v2Zm2-2v-2h2v2Zm2-2v-2h2v2Zm2-2v-2h2v2Zm2-2v-2h2v2Zm2-2v-2h2v2Zm2-2v-2h2v2Z" transform="translate(-15131 -19195)" fill="#04bedc"/>
        <path id="Path_3463-3" data-name="Path 3463" d="M-1284-1641h-2v-2h2v2Zm0-2v-2h2v2Zm2-2v-2h2v2Zm2-2v-2h2v2Zm2-2v-2h2v2Zm2-2v-2h2v2Zm2-2v-2h2v2Zm2-2v-2h2v2Zm2-2v-2h2v2Z" transform="translate(-15139 -19195)" fill="#04bedc"/>
        <path id="Path_3464-3" data-name="Path 3464" d="M-1284-1641h-2v-2h2v2Zm0-2v-2h2v2Zm2-2v-2h2v2Zm2-2v-2h2v2Zm2-2v-2h2v2Zm2-2v-2h2v2Zm2-2v-2h2v2Zm2-2v-2h2v2Zm2-2v-2h2v2Z" transform="translate(-15147 -19195)" fill="#00dcff"/>
        <path id="Path_3465-3" data-name="Path 3465" d="M-1284-1641h-2v-2h2v2Zm0-2v-2h2v2Zm2-2v-2h2v2Zm2-2v-2h2v2Zm2-2v-2h2v2Zm2-2v-2h2v2Zm2-2v-2h2v2Zm2-2v-2h2v2Zm2-2v-2h2v2Z" transform="translate(-15155 -19195)" fill="#04bedc"/>
      </g>
    </g>
  </g>
</svg>
